# xmcd
#
# Track frame offsets: 
#        150
#        12047
#        20715
#        30510
#        41400
#        51890
#        62605
#        71707
#        81567
#        92725
#        107162
#        118125
#        129507
#        142212
#        155840
#        170260
#        178307
#        192240
#        204742
#        218340
#        229285
#
# Disc length: 3206 seconds
#
# Revision: 2
# Processed by: cddbd v1.5.2PL0 Copyright (c) Steve Scherf et al.
# Submitted via: ExactAudioCopy v1.0b3
#
DISCID=350c8415
DTITLE=Mina - Una Storia. Il Mito - CD1
DYEAR=1900
DGENRE=
TTITLE0=Città vuota
TTITLE1=E' inutile
TTITLE2=Valentino vale
TTITLE3=E' l'uomo per me
TTITLE4=So che non è così
TTITLE5=Un buco nella sabbia
TTITLE6=Se mi compri un gelato
TTITLE7=Io sono quel che sono
TTITLE8=Tu farai
TTITLE9=Un anno d'amore
TTITLE10=Era vivere
TTITLE11=Se piangi se ridi
TTITLE12=Più di te
TTITLE13=Soli
TTITLE14=Un bacio è troppo poco
TTITLE15=Brava
TTITLE16=E se domani
TTITLE17=L'ultima occasione
TTITLE18=E...
TTITLE19=Ora o mai più
TTITLE20=Addio
EXTD=
EXTT0=
EXTT1=
EXTT2=
EXTT3=
EXTT4=
EXTT5=
EXTT6=
EXTT7=
EXTT8=
EXTT9=
EXTT10=
EXTT11=
EXTT12=
EXTT13=
EXTT14=
EXTT15=
EXTT16=
EXTT17=
EXTT18=
EXTT19=
EXTT20=
PLAYORDER=
